<svg width="20" height="20" viewBox="0 0 20 20" fill="none" xmlns="http://www.w3.org/2000/svg">
<path d="M19.7559 18.5773L14.0684 12.8899C15.1701 11.5291 15.8334 9.79992 15.8334 7.91662C15.8334 3.55166 12.2818 1.52588e-05 7.91681 1.52588e-05C3.55185 1.52588e-05 0.000244141 3.55162 0.000244141 7.91658C0.000244141 12.2815 3.55189 15.8332 7.91684 15.8332C9.80015 15.8332 11.5293 15.1699 12.8901 14.0682L18.5776 19.7556C18.7401 19.9181 18.9534 19.9998 19.1667 19.9998C19.3801 19.9998 19.5934 19.9181 19.7559 19.7556C20.0817 19.4298 20.0817 18.9031 19.7559 18.5773ZM7.91684 14.1665C4.4702 14.1665 1.66691 11.3632 1.66691 7.91658C1.66691 4.46993 4.4702 1.66664 7.91684 1.66664C11.3635 1.66664 14.1668 4.46993 14.1668 7.91658C14.1668 11.3632 11.3635 14.1665 7.91684 14.1665Z" fill="#585050"/>
</svg>
