<svg width="24" height="24" viewBox="0 0 24 24" fill="none" xmlns="http://www.w3.org/2000/svg">
<path d="M16.5 2.99988C14.76 2.99988 13.09 3.80988 12 5.08988C10.91 3.80988 9.24 2.99988 7.5 2.99988C4.42 2.99988 2 5.41988 2 8.49988C2 12.2799 5.4 15.3599 10.55 20.0399L12 21.3499L13.45 20.0299C18.6 15.3599 22 12.2799 22 8.49988C22 5.41988 19.58 2.99988 16.5 2.99988ZM12.1 18.5499L12 18.6499L11.9 18.5499C7.14 14.2399 4 11.3899 4 8.49988C4 6.49988 5.5 4.99988 7.5 4.99988C9.04 4.99988 10.54 5.98988 11.07 7.35988H12.94C13.46 5.98988 14.96 4.99988 16.5 4.99988C18.5 4.99988 20 6.49988 20 8.49988C20 11.3899 16.86 14.2399 12.1 18.5499Z" fill="black"/>
</svg>
