<svg width="41" height="40" viewBox="0 0 41 40" fill="none" xmlns="http://www.w3.org/2000/svg">
<ellipse cx="20.7032" cy="19.9999" rx="20.1561" ry="20" fill="#0E49B5"/>
<g clip-path="url(#clip0)">
<path d="M20.99 32.9999H19.4087C18.1298 32.9999 17.0893 31.9675 17.0893 30.6985V30.1677C16.5456 29.9953 16.0173 29.7777 15.5098 29.5171L15.1307 29.8933C14.2125 30.8055 12.7417 30.7787 11.8502 29.893L10.7326 28.7841C9.8395 27.8989 9.81381 26.4399 10.7329 25.5289L11.1117 25.1531C10.8491 24.6495 10.6298 24.1254 10.4561 23.5858H9.92118C8.64234 23.5858 7.60181 22.5534 7.60181 21.2844V19.7154C7.60181 18.4464 8.64234 17.414 9.92123 17.414H10.4561C10.6299 16.8744 10.8491 16.3503 11.1118 15.8467L10.7326 15.4706C9.81411 14.5601 9.83945 13.1011 10.7329 12.2155L11.8506 11.1065C12.7442 10.2186 14.2147 10.1964 15.1311 11.1068L15.5099 11.4826C16.0174 11.2221 16.5456 11.0045 17.0893 10.8321V10.3013C17.0893 9.03231 18.1298 7.99989 19.4088 7.99989H20.99C22.2689 7.99989 23.3094 9.03231 23.3094 10.3013V10.8321C23.8531 11.0045 24.3814 11.2221 24.8889 11.4827L25.268 11.1065C26.1862 10.1943 27.657 10.221 28.5485 11.1068L29.6661 12.2157C30.5592 13.1009 30.5849 14.5599 29.6658 15.4708L29.287 15.8467C29.5496 16.3503 29.7688 16.8744 29.9426 17.414H30.4775C31.7564 17.414 32.7969 18.4464 32.7969 19.7154V21.2844C32.7969 22.5534 31.7564 23.5858 30.4775 23.5858H29.9426C29.7688 24.1254 29.5496 24.6495 29.287 25.1531L29.6661 25.5292C30.5846 26.4397 30.5593 27.8988 29.6658 28.7844L28.5481 29.8933C27.6545 30.7812 26.184 30.8034 25.2676 29.8931L24.8889 29.5172C24.3814 29.7778 23.8531 29.9953 23.3094 30.1678V30.6986C23.3094 31.9675 22.2689 32.9999 20.99 32.9999ZM15.7566 27.9789C16.4616 28.3926 17.2204 28.7052 18.0119 28.9078C18.3379 28.9913 18.5656 29.283 18.5656 29.617V30.6985C18.5656 31.1598 18.9439 31.535 19.4088 31.535H20.99C21.4549 31.535 21.8332 31.1598 21.8332 30.6985V29.617C21.8332 29.283 22.0609 28.9913 22.3869 28.9078C23.1783 28.7052 23.9371 28.3926 24.6422 27.9789C24.9323 27.8087 25.3016 27.855 25.5399 28.0914L26.3119 28.8575C26.6447 29.1882 27.1792 29.1805 27.5039 28.8578L28.6223 27.7482C28.9462 27.4272 28.957 26.8967 28.6226 26.5653L27.8503 25.799C27.612 25.5625 27.5653 25.196 27.7368 24.9082C28.1538 24.2087 28.4687 23.4558 28.673 22.6704C28.7571 22.347 29.0511 22.121 29.3877 22.121H30.4775C30.9424 22.121 31.3207 21.7457 31.3207 21.2845V19.7154C31.3207 19.2541 30.9424 18.8788 30.4775 18.8788H29.3877C29.0511 18.8788 28.7571 18.6529 28.673 18.3295C28.4687 17.5441 28.1537 16.7912 27.7368 16.0916C27.5653 15.8038 27.612 15.4373 27.8503 15.2009L28.6223 14.4349C28.956 14.1041 28.9473 13.5738 28.6226 13.252L27.5043 12.1424C27.1802 11.8203 26.6456 11.8109 26.3122 12.1421L25.5399 12.9084C25.3017 13.1449 24.9322 13.1912 24.6422 13.021C23.9372 12.6073 23.1784 12.2947 22.3869 12.092C22.061 12.0086 21.8332 11.7169 21.8332 11.3829V10.3013C21.8332 9.84003 21.4549 9.46474 20.9901 9.46474H19.4088C18.9439 9.46474 18.5657 9.84003 18.5657 10.3013V11.3828C18.5657 11.7168 18.3379 12.0085 18.012 12.0919C17.2205 12.2946 16.4617 12.6072 15.7567 13.0209C15.4665 13.1911 15.0972 13.1448 14.8589 12.9083L14.0869 12.1423C13.7541 11.8116 13.2195 11.8193 12.8949 12.1419L11.7765 13.2516C11.4526 13.5726 11.4418 14.103 11.7762 14.4345L12.5486 15.2008C12.7868 15.4372 12.8335 15.8037 12.662 16.0915C12.245 16.7911 11.9301 17.544 11.7258 18.3294C11.6417 18.6528 11.3477 18.8787 11.0111 18.8787H9.92123C9.45635 18.8788 9.07808 19.2541 9.07808 19.7154V21.2844C9.07808 21.7457 9.45635 22.121 9.92123 22.121H11.0111C11.3477 22.121 11.6416 22.347 11.7258 22.6703C11.9301 23.4557 12.245 24.2087 12.6619 24.9082C12.8334 25.196 12.7868 25.5625 12.5485 25.7989L11.7765 26.565C11.4427 26.8957 11.4514 27.426 11.7762 27.7478L12.8945 28.8575C13.2186 29.1795 13.7532 29.189 14.0865 28.8578L14.8588 28.0914C15.0344 27.9172 15.3997 27.7694 15.7566 27.9789Z" fill="white"/>
<path d="M20.1994 25.9393C17.1767 25.9393 14.7175 23.4992 14.7175 20.4999C14.7175 17.5006 17.1767 15.0604 20.1994 15.0604C23.2222 15.0604 25.6813 17.5006 25.6813 20.4999C25.6813 23.4992 23.2222 25.9393 20.1994 25.9393ZM20.1994 16.5253C17.9907 16.5253 16.1938 18.3083 16.1938 20.4999C16.1938 22.6915 17.9907 24.4745 20.1994 24.4745C22.4081 24.4745 24.2051 22.6915 24.2051 20.4999C24.2051 18.3083 22.4082 16.5253 20.1994 16.5253Z" fill="white"/>
</g>
<defs>
<clipPath id="clip0">
<rect width="25.1951" height="25" fill="white" transform="translate(7.60181 7.99989)"/>
</clipPath>
</defs>
</svg>
